<?xml version="1.0" encoding="UTF-8"?>
<svg version="1.1" xmlns="http://www.w3.org/2000/svg" width="467" height="139">
<path d="M0 0 C9.8884326 11.86611912 7.09752472 33.43495351 7.1875 47.9375 C7.20055176 49.15727539 7.21360352 50.37705078 7.22705078 51.63378906 C7.24485367 70.28612712 1.90848943 86.85151392 -11.125 100.625 C-18.92605213 107.99192949 -27.60030706 113.65818686 -37.3125 118.125 C-37.95775635 118.43260254 -38.6030127 118.74020508 -39.26782227 119.05712891 C-44.83241419 121.46524789 -49.49733637 121.3423583 -55.03344727 119.22070312 C-57.10589204 118.27676328 -59.11369399 117.25515858 -61.125 116.1875 C-61.80175781 115.84396484 -62.47851562 115.50042969 -63.17578125 115.14648438 C-67.3080724 113.01639619 -71.26489208 110.77515028 -75 108 C-75 107.34 -75 106.68 -75 106 C-75.556875 105.938125 -76.11375 105.87625 -76.6875 105.8125 C-85.10446849 102.85518675 -92.6081859 90.37756371 -96.375 82.75 C-104.3897754 63.71490841 -102.76185921 43.13316731 -100.98687744 22.98977661 C-100.81642475 21.04478427 -100.66168747 19.09843497 -100.50732422 17.15209961 C-99.82456465 10.27901723 -99.00646731 4.12089593 -94 -1 C-74.32794262 -12.5700436 -18.59757192 -13.36700482 0 0 Z M-76.75 4.1875 C-77.9268335 4.33856201 -77.9268335 4.33856201 -79.12744141 4.49267578 C-82.62698642 5.07790242 -85.006012 6.00413876 -87.93359375 8.01953125 C-90.78976006 12.13910572 -91.02017096 15.57520932 -91.3125 20.5 C-91.38170654 21.44472168 -91.45091309 22.38944336 -91.5222168 23.36279297 C-92.05599388 31.60749397 -92.23348302 39.86480858 -92.3125 48.125 C-92.33030518 49.32060547 -92.34811035 50.51621094 -92.36645508 51.74804688 C-92.35260911 67.05955753 -88.35124038 80.55489077 -78 92 C-71.01085895 99.48595914 -71.01085895 99.48595914 -62 103 C-62 103.66 -62 104.32 -62 105 C-54.81205283 108.88283501 -50.09153828 110.72442619 -42 109 C-42.49322449 103.72116496 -43.73823225 100.08374816 -46.375 95.5 C-48.89564595 91.08082498 -51.026034 86.68816925 -53 82 C-54.34807166 79.09130059 -55.73841639 76.20300515 -57.125 73.3125 C-59.56796609 68.20834754 -61.97794026 63.09823417 -64.23828125 57.91015625 C-71.27543944 40.31238756 -71.27543944 40.31238756 -82 25 C-82.07244053 22.98035801 -82.08377188 20.95832876 -82.0625 18.9375 C-82.05347656 17.83277344 -82.04445313 16.72804688 -82.03515625 15.58984375 C-82.02355469 14.73519531 -82.01195312 13.88054688 -82 13 C-77.8736469 13.45848368 -75.74009215 13.84889402 -73 17 C-72.34 17 -71.68 17 -71 17 C-70.67 19.31 -70.34 21.62 -70 24 C-69.04480469 23.95359375 -68.08960937 23.9071875 -67.10546875 23.859375 C-58.42047657 23.61692258 -52.06770354 24.50220827 -44 28 C-33.64091996 31.39349174 -26.43391894 31.05014707 -16 28 C-14.66837251 27.65991603 -13.33572423 27.32361965 -12 27 C-10.42538634 31.72384098 -10.6502743 36.48884549 -10.5625 41.4375 C-10.51673828 42.48744141 -10.47097656 43.53738281 -10.42382812 44.61914062 C-10.38114092 47.53115012 -10.41401782 50.14619811 -11 53 C-16.24448554 57.92794595 -22.00720687 58.25336269 -28.984375 58.16015625 C-33.07245293 57.83532835 -36.7835895 56.54738473 -40.5 54.875 C-44.59740547 53.44090809 -48.40615422 53.34611455 -52.4375 55 C-53.2109375 55.495 -53.2109375 55.495 -54 56 C-52.8619128 59.82811148 -51.39865784 63.41000469 -49.734375 67.03125 C-49.28876221 68.00425049 -48.84314941 68.97725098 -48.3840332 69.97973633 C-47.92730225 70.97642334 -47.47057129 71.97311035 -47 73 C-46.15384638 74.867991 -45.30877422 76.73647231 -44.46484375 78.60546875 C-44.04783203 79.52650391 -43.63082031 80.44753906 -43.20117188 81.39648438 C-42.35365606 83.26835469 -41.50731539 85.14075748 -40.66210938 87.01367188 C-38.21886117 92.40396986 -35.68387077 97.7252332 -33 103 C-23.85658901 100.94812749 -16.43889342 92.21777961 -11 85 C1.87670957 62.93350198 -0.17465521 35.12516026 -4.98828125 10.6953125 C-5.71600769 7.91984138 -5.71600769 7.91984138 -7.81054688 6.88476562 C-27.10759249 -0.91323764 -56.41187542 1.40023754 -76.75 4.1875 Z " fill="#FDFDFD" transform="translate(108,16)"/>
<path d="M0 0 C20 0 20 0 27 4 C28.89944562 7.00745556 29.02546364 8.57560598 28.8125 12.125 C27.99000729 15.03535881 27.34214105 16.16702005 25 18 C26.37154504 20.95409701 27.98863724 23.44008376 30 26 C30.433125 25.360625 30.86625 24.72125 31.3125 24.0625 C35.44651583 20.8898832 39.91601822 21.17530972 45 21 C45 20.34 45 19.68 45 19 C41.78364348 18.92342008 38.86703346 19.02257922 35.6875 19.5625 C34.800625 19.706875 33.91375 19.85125 33 20 C32 19 32 19 31.9375 15.4375 C31.958125 14.303125 31.97875 13.16875 32 12 C35.64117 10.33772674 38.50290369 9.7275444 42.5 9.75 C43.4178125 9.74484375 44.335625 9.7396875 45.28125 9.734375 C49.36489336 10.13335165 51.9543908 10.88165277 54.796875 13.921875 C56.64573301 18.65207016 56.35339623 23.22235815 56.25 28.25 C56.24484375 29.26835938 56.2396875 30.28671875 56.234375 31.3359375 C56.15427055 38.84572945 56.15427055 38.84572945 55 40 C52.26330934 40.29353453 49.55720992 40.51638342 46.8125 40.6875 C46.05646484 40.74744141 45.30042969 40.80738281 44.52148438 40.86914062 C39.89567659 41.16201484 36.31332881 40.96532125 32 39 C29.625 36.375 29.625 36.375 28 34 C27.236875 34.804375 26.47375 35.60875 25.6875 36.4375 C18.29271171 43.48834465 11.98718365 40 0 40 C0 26.8 0 13.6 0 0 Z M10 8 C10 10.31 10 12.62 10 15 C11.99954746 15.04254356 14.00041636 15.04080783 16 15 C17.28322547 13.9404123 17.28322547 13.9404123 17.125 11.5 C17.28322547 9.0595877 17.28322547 9.0595877 16 8 C14.00041636 7.95919217 11.99954746 7.95745644 10 8 Z M9 23 C8.979375 24.299375 8.95875 25.59875 8.9375 26.9375 C8.92589844 27.66839844 8.91429687 28.39929688 8.90234375 29.15234375 C8.79438816 31.01732141 8.79438816 31.01732141 10 32 C12.95817107 32.25005386 12.95817107 32.25005386 16 32 C18.2491908 30.17296773 18.2491908 30.17296773 18.25 27.5 C18.2491908 24.82703227 18.2491908 24.82703227 16 23 C12.41656024 22.83322718 12.41656024 22.83322718 9 23 Z M41 28 C40.67 29.32 40.34 30.64 40 32 C40.99 32.33 41.98 32.66 43 33 C43.66 32.67 44.32 32.34 45 32 C45 30.68 45 29.36 45 28 C43.68 28 42.36 28 41 28 Z " fill="#FDFDFC" transform="translate(340,50)"/>
<path d="M0 0 C0 2.97 0 5.94 0 9 C2.64 9.33 5.28 9.66 8 10 C8 12.64 8 15.28 8 18 C5.36 18 2.72 18 0 18 C0 21.96 0 25.92 0 30 C4.06206218 30.57600728 4.06206218 30.57600728 8 30 C9.67418076 28.0953476 10.70096515 26.22709496 11.796875 23.9453125 C13.26718158 21.56799862 14.40535019 20.96815292 17 20 C19.32495277 19.61250787 21.65851268 19.27017161 24 19 C24 18.34 24 17.68 24 17 C23.21753906 17.15597656 22.43507812 17.31195313 21.62890625 17.47265625 C20.61699219 17.66730469 19.60507813 17.86195312 18.5625 18.0625 C17.04849609 18.35833984 17.04849609 18.35833984 15.50390625 18.66015625 C14.67761719 18.77230469 13.85132813 18.88445312 13 19 C12 18 12 18 11.9375 14.4375 C11.958125 13.303125 11.97875 12.16875 12 11 C15.64117 9.33772674 18.50290369 8.7275444 22.5 8.75 C23.4178125 8.74484375 24.335625 8.7396875 25.28125 8.734375 C29.36489336 9.13335165 31.9543908 9.88165277 34.796875 12.921875 C36.64573301 17.65207016 36.35339623 22.22235815 36.25 27.25 C36.24484375 28.26835938 36.2396875 29.28671875 36.234375 30.3359375 C36.15427055 37.84572945 36.15427055 37.84572945 35 39 C31.38343314 39.30695516 27.75299647 39.27835951 24.125 39.3125 C23.10535156 39.34150391 22.08570313 39.37050781 21.03515625 39.40039062 C20.05675781 39.40876953 19.07835937 39.41714844 18.0703125 39.42578125 C17.17070801 39.44036377 16.27110352 39.45494629 15.34423828 39.4699707 C13 39 13 39 11.18310547 36.97338867 C10.79268066 36.32217041 10.40225586 35.67095215 10 35 C9.34 36.32 8.68 37.64 8 39 C5.56065775 39.13501894 3.12875896 39.23403897 0.6875 39.3125 C-0.00279297 39.35439453 -0.69308594 39.39628906 -1.40429688 39.43945312 C-3.42578125 39.48828125 -3.42578125 39.48828125 -7 39 C-10.64862382 35.23367863 -10.5317922 30.6657007 -10.6875 25.6875 C-10.73874023 24.57665039 -10.73874023 24.57665039 -10.79101562 23.44335938 C-10.87293554 21.62941836 -10.93815822 19.81473647 -11 18 C-11.99 18 -12.98 18 -14 18 C-14.33 15.69 -14.66 13.38 -15 11 C-13.68 10.34 -12.36 9.68 -11 9 C-11 7.02 -11 5.04 -11 3 C-7.14243493 0.84694043 -4.44870215 -0.39253254 0 0 Z M21 27 C20.67 28.32 20.34 29.64 20 31 C21.32 31.33 22.64 31.66 24 32 C24.33 30.35 24.66 28.7 25 27 C23.68 27 22.36 27 21 27 Z " fill="#FDFDFD" transform="translate(181,51)"/>
<path d="M0 0 C1.81115956 1.81115956 1.38199448 4.61278227 1.5625 7.0625 C1.64628906 8.16722656 1.73007812 9.27195312 1.81640625 10.41015625 C1.87699219 11.26480469 1.93757813 12.11945312 2 13 C2.58007812 12.95359375 3.16015625 12.9071875 3.7578125 12.859375 C7.93435779 12.66639931 10.56753744 12.80342611 14.4375 14.5625 C18.44648785 18.37592746 18.82556 22.08115996 19.3125 27.4375 C18.85129777 32.69520537 17.40561818 36.77834237 14.59375 41.22265625 C10.33084175 44.14377561 5.77712586 43.41586964 0.75 43.25 C-0.28125 43.23195312 -1.3125 43.21390625 -2.375 43.1953125 C-4.91761064 43.14822712 -7.45833162 43.0824805 -10 43 C-11.63056957 39.73886087 -11.14171523 36.14520683 -11.1328125 32.5625 C-11.13376923 31.72662354 -11.13472595 30.89074707 -11.13571167 30.02954102 C-11.13639268 28.26090418 -11.13454391 26.49226485 -11.13037109 24.72363281 C-11.12502171 22.01101079 -11.13031875 19.29855435 -11.13671875 16.5859375 C-11.13605795 14.8697913 -11.13477676 13.1536452 -11.1328125 11.4375 C-11.13483673 10.62289307 -11.13686096 9.80828613 -11.13894653 8.96899414 C-11.11495964 3.22991928 -11.11495964 3.22991928 -10 1 C-6.64674895 0.06854137 -3.4706068 -0.19281149 0 0 Z M1 23 C0.92773498 24.85287502 0.9161878 26.70833878 0.9375 28.5625 C0.94652344 29.57441406 0.95554687 30.58632812 0.96484375 31.62890625 C0.97644531 32.41136719 0.98804688 33.19382812 1 34 C4.58327753 35.00217064 4.58327753 35.00217064 8 34 C8.02687279 32.18757948 8.04633715 30.37504767 8.0625 28.5625 C8.07410156 27.55316406 8.08570313 26.54382813 8.09765625 25.50390625 C8.28612676 23.05978933 8.28612676 23.05978933 7 22 C3.71105107 21.59371033 3.71105107 21.59371033 1 23 Z " fill="#FDFDFD" transform="translate(264,47)"/>
<path d="M0 0 C0.763125 0.495 1.52625 0.99 2.3125 1.5 C1.9825 3.81 1.6525 6.12 1.3125 8.5 C-3.4375 9.625 -3.4375 9.625 -5.6875 8.5 C-7.68710012 8.460008 -9.68797242 8.45653201 -11.6875 8.5 C-11.63868678 10.42760822 -11.63868678 10.42760822 -10.6875 12.5 C-7.73757679 14.18189652 -4.69754332 15.42347571 -1.5703125 16.7421875 C1.97215595 18.90222924 2.90478312 20.63855438 4.3125 24.5 C4.85540075 28.47244453 4.18978583 31.88724522 2.2734375 35.41015625 C-0.64213425 38.70771467 -3.50453916 39.62205459 -7.79296875 39.96875 C-19.2563691 40.37199138 -19.2563691 40.37199138 -23.20703125 37.96484375 C-23.69558594 37.48144531 -24.18414062 36.99804688 -24.6875 36.5 C-23.9375 31.75 -23.9375 31.75 -21.6875 29.5 C-18.9375 29.55859375 -18.9375 29.55859375 -15.6875 29.9375 C-11.54177299 30.60215726 -11.54177299 30.60215726 -7.6875 29.5 C-7.86635114 27.54554174 -7.86635114 27.54554174 -8.6875 25.5 C-10.56248992 24.3232259 -10.56248992 24.3232259 -12.875 23.5625 C-17.32804354 21.7372493 -20.35109332 20.00322701 -23.6875 16.5 C-25.23473403 11.95500004 -24.70526919 8.81068871 -22.6875 4.5 C-16.61743111 -2.50392565 -8.52117898 -3.4662423 0 0 Z " fill="#FDFDFC" transform="translate(161.6875,50.5)"/>
<path d="M0 0 C0 7.26 0 14.52 0 22 C0.66 22 1.32 22 2 22 C2.226875 21.278125 2.45375 20.55625 2.6875 19.8125 C4.33900613 16.2735583 5.88158251 14.37270896 9 12 C11.80635652 11.58347213 14.14067214 11.75768408 17 12 C17.33 12.99 17.66 13.98 18 15 C16.34765625 17.69921875 16.34765625 17.69921875 14.0625 20.6875 C13.31097656 21.68136719 12.55945313 22.67523438 11.78515625 23.69921875 C11.19605469 24.45847656 10.60695313 25.21773437 10 26 C10.495 26.78375 10.99 27.5675 11.5 28.375 C13 31 13 31 13 33 C13.66 33 14.32 33 15 33 C15.33 34.32 15.66 35.64 16 37 C16.66 37 17.32 37 18 37 C18.5625 38.9375 18.5625 38.9375 19 41 C16.79024328 43.20975672 12.67774118 42.56259396 9.74609375 42.56640625 C7 42 7 42 5.16015625 40.21484375 C3.92448483 38.18404463 2.88991206 36.20265526 2 34 C1.7834375 35.7015625 1.7834375 35.7015625 1.5625 37.4375 C1 41 1 41 0 42 C-2.97 42 -5.94 42 -9 42 C-9 28.14 -9 14.28 -9 0 C-5 -1 -5 -1 0 0 Z " fill="#FCFCFC" transform="translate(441,48)"/>
<path d="M0 0 C1.36705078 -0.01836914 1.36705078 -0.01836914 2.76171875 -0.03710938 C4.08236328 -0.04000977 4.08236328 -0.04000977 5.4296875 -0.04296875 C6.23390137 -0.04707764 7.03811523 -0.05118652 7.86669922 -0.05541992 C10.48337713 0.22604976 11.97191008 0.66150972 14.125 2.1875 C15.986161 5.64578059 16.37344133 8.56399881 16.35546875 12.453125 C16.35353516 13.42507812 16.35160156 14.39703125 16.34960938 15.3984375 C16.33124023 16.90277344 16.33124023 16.90277344 16.3125 18.4375 C16.31185547 19.45585938 16.31121094 20.47421875 16.31054688 21.5234375 C16.26540493 29.04709507 16.26540493 29.04709507 15.125 30.1875 C12.155 30.1875 9.185 30.1875 6.125 30.1875 C5.795 23.2575 5.465 16.3275 5.125 9.1875 C3.475 9.5175 1.825 9.8475 0.125 10.1875 C0.09994385 10.75782959 0.0748877 11.32815918 0.04907227 11.91577148 C-0.06656549 14.48576157 -0.18943624 17.05535527 -0.3125 19.625 C-0.35181641 20.52283203 -0.39113281 21.42066406 -0.43164062 22.34570312 C-0.47353516 23.19970703 -0.51542969 24.05371094 -0.55859375 24.93359375 C-0.61358032 26.11973267 -0.61358032 26.11973267 -0.66967773 27.32983398 C-0.875 29.1875 -0.875 29.1875 -1.875 30.1875 C-3.37238124 30.2854057 -4.87442892 30.31724864 -6.375 30.3125 C-7.1896875 30.31507812 -8.004375 30.31765625 -8.84375 30.3203125 C-10.875 30.1875 -10.875 30.1875 -11.875 29.1875 C-11.96267112 27.11487924 -11.98195873 25.03929706 -11.97265625 22.96484375 C-11.96943359 21.70478516 -11.96621094 20.44472656 -11.96289062 19.14648438 C-11.95453403 17.80598891 -11.94606907 16.46549412 -11.9375 15.125 C-11.9324866 13.78060058 -11.92792342 12.4361994 -11.92382812 11.09179688 C-11.91199488 7.79032059 -11.89550971 4.48893197 -11.875 1.1875 C-8.25046571 -0.62476714 -3.99021368 0.00279819 0 0 Z " fill="#FDFDFD" transform="translate(232.875,59.8125)"/>
<path d="M0 0 C0.81146484 -0.01224609 1.62292969 -0.02449219 2.45898438 -0.03710938 C3.24466797 -0.03904297 4.03035156 -0.04097656 4.83984375 -0.04296875 C5.55390381 -0.04707764 6.26796387 -0.05118652 7.00366211 -0.05541992 C9.45902843 0.23428593 10.99235894 0.83553759 13.0625 2.1875 C16.06320085 8.24972673 16.47767425 13.44060451 16.3125 20.125 C16.30734375 20.98673828 16.3021875 21.84847656 16.296875 22.73632812 C16.21749052 29.03250948 16.21749052 29.03250948 15.0625 30.1875 C11.7625 30.1875 8.4625 30.1875 5.0625 30.1875 C4.7325 23.2575 4.4025 16.3275 4.0625 9.1875 C2.4125 9.8475 0.7625 10.5075 -0.9375 11.1875 C-0.99808594 12.47527344 -1.05867188 13.76304688 -1.12109375 15.08984375 C-1.20548247 16.76824159 -1.2901313 18.44662636 -1.375 20.125 C-1.41431641 20.97513672 -1.45363281 21.82527344 -1.49414062 22.70117188 C-1.53603516 23.51005859 -1.57792969 24.31894531 -1.62109375 25.15234375 C-1.67608032 26.27564087 -1.67608032 26.27564087 -1.73217773 27.42163086 C-1.9375 29.1875 -1.9375 29.1875 -2.9375 30.1875 C-5.9075 30.1875 -8.8775 30.1875 -11.9375 30.1875 C-11.9375 20.6175 -11.9375 11.0475 -11.9375 1.1875 C-7.91560055 -0.15313315 -4.21087478 0.00332875 0 0 Z " fill="#FDFDFD" transform="translate(411.9375,59.8125)"/>
<path d="M0 0 C3.95180041 3.56528368 5.99874836 6.62289801 7.9375 11.5625 C8.43952256 12.80727916 8.94479839 14.05075063 9.453125 15.29296875 C9.70642578 15.91349121 9.95972656 16.53401367 10.22070312 17.17333984 C11.81441519 20.90897696 13.72423373 24.48930637 15.60546875 28.0859375 C16.68365408 30.33895223 17.56849311 32.49181812 18.41015625 34.83203125 C20.27539637 39.93982656 22.82495543 44.65518231 25.390625 49.43945312 C26.33320323 51.25703504 27.17464397 53.12627506 28 55 C27.67 55.99 27.34 56.98 27 58 C18.5988068 56.5933782 11.65111974 48.16149812 6.7578125 41.703125 C1.74418259 33.99327634 -0.83761743 26.15587851 -1 17 C-1.01369629 16.34821777 -1.02739258 15.69643555 -1.04150391 15.02490234 C-1.12890325 10.34640504 -1.19131802 5.67603747 -1 1 C-0.67 0.67 -0.34 0.34 0 0 Z " fill="#FCFDFC" transform="translate(25,54)"/>
<path d="M0 0 C1.12148438 -0.01224609 2.24296875 -0.02449219 3.3984375 -0.03710938 C10.04419029 -0.04862049 16.26342873 0.50606249 22.79443359 1.72192383 C27.62456765 2.55309741 32.45434691 2.58954825 37.34765625 2.74609375 C40.5 3.1875 40.5 3.1875 42.43359375 4.72265625 C42.78550781 5.20605469 43.13742188 5.68945312 43.5 6.1875 C42.60228121 9.11357799 42.07550308 10.79444604 39.50390625 12.55078125 C27.87642371 17.07154646 19.03502143 15.19591995 7.5 11.1875 C0.88625634 8.9238675 -5.01441655 7.81076547 -12.03125 7.59375 C-12.8459375 7.4596875 -13.660625 7.325625 -14.5 7.1875 C-16.5 4.1875 -16.5 4.1875 -16.5 1.1875 C-11.12279774 -0.41114925 -5.55987882 0.00310955 0 0 Z " fill="#FDFDFD" transform="translate(53.5,25.8125)"/>
<path d="M0 0 C-0.46463729 9.60250405 -4.19535321 17.3939111 -10 25 C-10.66 25 -11.32 25 -12 25 C-12.226875 25.639375 -12.45375 26.27875 -12.6875 26.9375 C-14 29 -14 29 -16.58203125 29.62890625 C-17.37996094 29.75136719 -18.17789063 29.87382813 -19 30 C-24.859375 18.28125 -24.859375 18.28125 -25.91992188 16.14453125 C-26.64947567 14.69597778 -27.39609083 13.25591032 -28.15820312 11.82421875 C-28.52365234 11.12941406 -28.88910156 10.43460938 -29.265625 9.71875 C-29.59852539 9.09935547 -29.93142578 8.47996094 -30.27441406 7.84179688 C-31 6 -31 6 -31 2 C-30.41734375 2.15597656 -29.8346875 2.31195313 -29.234375 2.47265625 C-17.60314901 5.23415802 -10.38805467 0 0 0 Z " fill="#FDFDFD" transform="translate(98,77)"/>
<path d="M0 0 C1.40378906 -0.02126953 1.40378906 -0.02126953 2.8359375 -0.04296875 C5.78618154 0.20081892 7.94864112 0.95637492 10.625 2.1875 C10.295 4.4975 9.965 6.8075 9.625 9.1875 C6.83645291 10.1170157 4.34616386 10.22927614 1.4375 10.1875 C0.179375 10.1875 -1.07875 10.1875 -2.375 10.1875 C-3.63449049 11.22156673 -3.63449049 11.22156673 -3.47265625 13.47265625 C-3.46105469 14.38917969 -3.44945312 15.30570313 -3.4375 16.25 C-3.416875 17.879375 -3.39625 19.50875 -3.375 21.1875 C0.915 21.1875 5.205 21.1875 9.625 21.1875 C10.97939668 23.89629335 10.69001451 26.19683268 10.625 29.1875 C4.3292508 31.02756196 -1.98712867 32.25543801 -8.375 30.1875 C-11.89670224 27.4000798 -13.9609626 24.42961219 -15.375 20.1875 C-15.9429716 14.45317139 -15.59544433 10.13318237 -12.375 5.1875 C-8.58797781 0.80875559 -5.68158256 0.03891495 0 0 Z " fill="#FDFDFC" transform="translate(314.375,59.8125)"/>
<path d="M0 0 C2 2 2 2 2.24291992 4.68969727 C2.23675659 6.36116821 2.23675659 6.36116821 2.23046875 8.06640625 C2.22853516 9.27361328 2.22660156 10.48082031 2.22460938 11.72460938 C2.21236328 12.99111328 2.20011719 14.25761719 2.1875 15.5625 C2.18685547 16.83287109 2.18621094 18.10324219 2.18554688 19.41210938 C2.14010053 28.85989947 2.14010053 28.85989947 1 30 C-1.97 30 -4.94 30 -8 30 C-8 20.43 -8 10.86 -8 1 C-5.23749964 -0.38125018 -3.05268901 -0.19079306 0 0 Z " fill="#FCFDFD" transform="translate(294,60)"/>
<path d="M0 0 C0.75 2.75 0.75 2.75 1 6 C-0.625 8.375 -0.625 8.375 -3 10 C-5.90697947 10.49631357 -7.30201593 10.43323149 -9.8125 8.875 C-11.58904542 6.06992828 -11.54024299 4.24145792 -11 1 C-7.10944455 -2.66169925 -4.67594182 -2.06611383 0 0 Z " fill="#FDFDFC" transform="translate(296,49)"/>
</svg>
